<mxfile host="app.diagrams.net" agent="Mozilla/5.0 (Windows NT 10.0; Win64; x64) AppleWebKit/537.36 (KHTML, like Gecko) Chrome/137.0.0.0 Safari/537.36" version="27.1.1">
  <diagram name="PÃ¡gina-1" id="qFlVLsqiQt7bUfeSuSrz">
    <mxGraphModel dx="866" dy="473" grid="1" gridSize="10" guides="1" tooltips="1" connect="1" arrows="1" fold="1" page="1" pageScale="1" pageWidth="827" pageHeight="1169" math="0" shadow="0">
      <root>
        <mxCell id="0" />
        <mxCell id="1" parent="0" />
        <mxCell id="DL6j5bqKDcMqdLovzyCH-32" value="Usuario" style="swimlane;fontStyle=0;childLayout=stackLayout;horizontal=1;startSize=30;horizontalStack=0;resizeParent=1;resizeParentMax=0;resizeLast=0;collapsible=1;marginBottom=0;whiteSpace=wrap;html=1;" vertex="1" parent="1">
          <mxGeometry x="100" y="495" width="140" height="220" as="geometry" />
        </mxCell>
        <mxCell id="DL6j5bqKDcMqdLovzyCH-34" value="&lt;div&gt;id: int,&lt;/div&gt;&lt;div&gt;nome: string,&lt;/div&gt;&lt;div&gt;email: string,&lt;/div&gt;&lt;div&gt;senha: string,&lt;/div&gt;&lt;div&gt;perfil: string,&lt;/div&gt;&lt;div&gt;status: int,&lt;/div&gt;&lt;div&gt;criado_Em: datetime,&lt;/div&gt;&lt;div&gt;alterado_Em: datetime&lt;/div&gt;" style="text;strokeColor=none;fillColor=none;align=left;verticalAlign=middle;spacingLeft=4;spacingRight=4;overflow=hidden;points=[[0,0.5],[1,0.5]];portConstraint=eastwest;rotatable=0;whiteSpace=wrap;html=1;" vertex="1" parent="DL6j5bqKDcMqdLovzyCH-32">
          <mxGeometry y="30" width="140" height="130" as="geometry" />
        </mxCell>
        <mxCell id="DL6j5bqKDcMqdLovzyCH-36" value="" style="rounded=0;whiteSpace=wrap;html=1;" vertex="1" parent="DL6j5bqKDcMqdLovzyCH-32">
          <mxGeometry y="160" width="140" height="60" as="geometry" />
        </mxCell>
        <mxCell id="DL6j5bqKDcMqdLovzyCH-37" value="Status" style="swimlane;fontStyle=0;childLayout=stackLayout;horizontal=1;startSize=30;horizontalStack=0;resizeParent=1;resizeParentMax=0;resizeLast=0;collapsible=1;marginBottom=0;whiteSpace=wrap;html=1;" vertex="1" parent="1">
          <mxGeometry x="480" y="495" width="140" height="220" as="geometry" />
        </mxCell>
        <mxCell id="DL6j5bqKDcMqdLovzyCH-38" value="&lt;div&gt;id: int,&lt;/div&gt;&lt;div&gt;descricao: string,&lt;/div&gt;&lt;div&gt;criado_Em: datetime,&lt;/div&gt;&lt;div&gt;alterado_Em: datetime&lt;/div&gt;" style="text;strokeColor=none;fillColor=none;align=left;verticalAlign=middle;spacingLeft=4;spacingRight=4;overflow=hidden;points=[[0,0.5],[1,0.5]];portConstraint=eastwest;rotatable=0;whiteSpace=wrap;html=1;" vertex="1" parent="DL6j5bqKDcMqdLovzyCH-37">
          <mxGeometry y="30" width="140" height="130" as="geometry" />
        </mxCell>
        <mxCell id="DL6j5bqKDcMqdLovzyCH-39" value="" style="rounded=0;whiteSpace=wrap;html=1;" vertex="1" parent="DL6j5bqKDcMqdLovzyCH-37">
          <mxGeometry y="160" width="140" height="60" as="geometry" />
        </mxCell>
        <mxCell id="DL6j5bqKDcMqdLovzyCH-40" value="LoginDto" style="swimlane;fontStyle=0;childLayout=stackLayout;horizontal=1;startSize=30;horizontalStack=0;resizeParent=1;resizeParentMax=0;resizeLast=0;collapsible=1;marginBottom=0;whiteSpace=wrap;html=1;" vertex="1" parent="1">
          <mxGeometry x="480" y="840" width="140" height="220" as="geometry" />
        </mxCell>
        <mxCell id="DL6j5bqKDcMqdLovzyCH-41" value="&lt;div&gt;email: string,&lt;/div&gt;&lt;div&gt;senha: string,&lt;/div&gt;" style="text;strokeColor=none;fillColor=none;align=left;verticalAlign=middle;spacingLeft=4;spacingRight=4;overflow=hidden;points=[[0,0.5],[1,0.5]];portConstraint=eastwest;rotatable=0;whiteSpace=wrap;html=1;" vertex="1" parent="DL6j5bqKDcMqdLovzyCH-40">
          <mxGeometry y="30" width="140" height="130" as="geometry" />
        </mxCell>
        <mxCell id="DL6j5bqKDcMqdLovzyCH-42" value="" style="rounded=0;whiteSpace=wrap;html=1;" vertex="1" parent="DL6j5bqKDcMqdLovzyCH-40">
          <mxGeometry y="160" width="140" height="60" as="geometry" />
        </mxCell>
        <mxCell id="DL6j5bqKDcMqdLovzyCH-43" value="CadastroDto" style="swimlane;fontStyle=0;childLayout=stackLayout;horizontal=1;startSize=30;horizontalStack=0;resizeParent=1;resizeParentMax=0;resizeLast=0;collapsible=1;marginBottom=0;whiteSpace=wrap;html=1;" vertex="1" parent="1">
          <mxGeometry x="290" y="840" width="140" height="220" as="geometry" />
        </mxCell>
        <mxCell id="DL6j5bqKDcMqdLovzyCH-44" value="&lt;div&gt;nome: string,&lt;/div&gt;&lt;div&gt;email: string,&lt;br&gt;&lt;span style=&quot;background-color: transparent; color: light-dark(rgb(0, 0, 0), rgb(255, 255, 255));&quot;&gt;senha: string,&lt;/span&gt;&lt;/div&gt;&lt;div&gt;perfil: string,&lt;/div&gt;" style="text;strokeColor=none;fillColor=none;align=left;verticalAlign=middle;spacingLeft=4;spacingRight=4;overflow=hidden;points=[[0,0.5],[1,0.5]];portConstraint=eastwest;rotatable=0;whiteSpace=wrap;html=1;" vertex="1" parent="DL6j5bqKDcMqdLovzyCH-43">
          <mxGeometry y="30" width="140" height="130" as="geometry" />
        </mxCell>
        <mxCell id="DL6j5bqKDcMqdLovzyCH-45" value="" style="rounded=0;whiteSpace=wrap;html=1;" vertex="1" parent="DL6j5bqKDcMqdLovzyCH-43">
          <mxGeometry y="160" width="140" height="60" as="geometry" />
        </mxCell>
        <mxCell id="DL6j5bqKDcMqdLovzyCH-46" value="AlterarUsuarioDto" style="swimlane;fontStyle=0;childLayout=stackLayout;horizontal=1;startSize=30;horizontalStack=0;resizeParent=1;resizeParentMax=0;resizeLast=0;collapsible=1;marginBottom=0;whiteSpace=wrap;html=1;" vertex="1" parent="1">
          <mxGeometry x="100" y="840" width="140" height="220" as="geometry" />
        </mxCell>
        <mxCell id="DL6j5bqKDcMqdLovzyCH-47" value="&lt;div&gt;nome: string,&lt;/div&gt;&lt;div&gt;email: string,&lt;/div&gt;&lt;div&gt;senha: string,&lt;/div&gt;&lt;div&gt;perfil: string,&lt;br&gt;&lt;span style=&quot;background-color: transparent; color: light-dark(rgb(0, 0, 0), rgb(255, 255, 255));&quot;&gt;status: int,&lt;/span&gt;&lt;/div&gt;" style="text;strokeColor=none;fillColor=none;align=left;verticalAlign=middle;spacingLeft=4;spacingRight=4;overflow=hidden;points=[[0,0.5],[1,0.5]];portConstraint=eastwest;rotatable=0;whiteSpace=wrap;html=1;" vertex="1" parent="DL6j5bqKDcMqdLovzyCH-46">
          <mxGeometry y="30" width="140" height="130" as="geometry" />
        </mxCell>
        <mxCell id="DL6j5bqKDcMqdLovzyCH-48" value="" style="rounded=0;whiteSpace=wrap;html=1;" vertex="1" parent="DL6j5bqKDcMqdLovzyCH-46">
          <mxGeometry y="160" width="140" height="60" as="geometry" />
        </mxCell>
        <mxCell id="DL6j5bqKDcMqdLovzyCH-49" style="edgeStyle=orthogonalEdgeStyle;rounded=0;orthogonalLoop=1;jettySize=auto;html=1;exitX=1;exitY=0.5;exitDx=0;exitDy=0;entryX=0;entryY=0.5;entryDx=0;entryDy=0;startArrow=classic;startFill=1;" edge="1" parent="1" source="DL6j5bqKDcMqdLovzyCH-34" target="DL6j5bqKDcMqdLovzyCH-38">
          <mxGeometry relative="1" as="geometry" />
        </mxCell>
        <mxCell id="DL6j5bqKDcMqdLovzyCH-50" value="1" style="text;html=1;align=center;verticalAlign=middle;whiteSpace=wrap;rounded=0;" vertex="1" parent="1">
          <mxGeometry x="410" y="555" width="60" height="30" as="geometry" />
        </mxCell>
        <mxCell id="DL6j5bqKDcMqdLovzyCH-51" value="N" style="text;html=1;align=center;verticalAlign=middle;whiteSpace=wrap;rounded=0;" vertex="1" parent="1">
          <mxGeometry x="250" y="555" width="60" height="30" as="geometry" />
        </mxCell>
        <mxCell id="DL6j5bqKDcMqdLovzyCH-52" value="*DTOs usados em momentos especificos" style="text;html=1;align=center;verticalAlign=middle;whiteSpace=wrap;rounded=0;" vertex="1" parent="1">
          <mxGeometry x="240" y="790" width="240" height="30" as="geometry" />
        </mxCell>
      </root>
    </mxGraphModel>
  </diagram>
</mxfile>
